<?xml version="1.0" encoding="UTF-8"?>
<svg id="Capa_1" xmlns="http://www.w3.org/2000/svg" viewBox="0 0 65 65">
  <defs>
    <style>
      .cls-1 {
        fill: #837fcb;
      }
    </style>
  </defs>
  <path class="cls-1" d="M30.85,59.98c-12.48,0-22.89-9.01-24.51-20.99-1.57-11.56,4.83-22.23,15.9-26.44,1-.38,1.33-.89,1.24-1.88-.05-.58-.27-.83-.86-.83-.5,0-1,0-1.49-.08-.46-.08-.77-.4-.74-.91.03-.5.34-.77.82-.83.14-.02.29-.04.43-.02,1.18.18,1.86-.18,2.22-1.45.32-1.14,1.5-1.64,2.77-1.54,1.15.09,2.16.86,2.41,2.1.16.82.58.98,1.26.89.7-.09,1.57.37,1.88-.83.4-1.53,1.36-2.19,2.78-2.16,1.32.03,2.27.76,2.66,2.2.16.6.42.84,1.02.8.46-.03.93-.02,1.39.03.48.05.79.36.81.85.02.5-.3.8-.77.89-.38.07-.78.03-1.17.07-.46.04-1.13-.2-1.16.57-.02.72-.37,1.58.76,1.94,2.19.7,4.21,1.77,6.09,3.08.32.22.64.46.91.74.34.34.41.75.09,1.16-.31.38-.7.48-1.14.24-.28-.15-.54-.34-.8-.53-13.44-9.58-32.62-1.61-35.31,14.68-2.1,12.74,6.57,24.5,19.32,26.2,12.11,1.62,23.45-6.8,25.29-18.81.86-5.61-.2-10.86-3.23-15.68-.19-.3-.39-.61-.5-.94-.14-.42.05-.77.42-1,.35-.22.7-.18.99.08.23.21.43.48.6.74,9.48,14.71.67,34.58-16.57,37.37-1.34.22-2.69.35-3.79.28ZM35.85,9.43s0,0,0,0c0-.5.01-.99,0-1.49-.02-.55-.25-.98-.85-1.05-.68-.08-.99.4-1.04.96-.08.81-.02,1.63-.08,2.44-.09,1.14.72,1.17,1.46,1.19.89.03.43-.7.51-1.1.07-.3.01-.64.01-.95ZM25.46,9.4s-.01,0-.02,0c0,.43-.01.85,0,1.28.02.37-.09.87.55.79.5-.06,1.21.08,1.26-.67.07-1.02.05-2.06,0-3.09-.03-.51-.39-.84-.94-.82-.57.02-.81.4-.84.92-.03.53,0,1.07,0,1.6Z"/>
  <path class="cls-1" d="M36.75,46.49c-1.32-.75-2.03.24-2.97,1.33-1.96,2.24-5.42,1.79-7.03-.79-.4-.64-.7-.85-1.5-.66-3.44.81-6.28-2.09-5.47-5.53.15-.64.09-.99-.54-1.37-3.04-1.8-3.1-5.9-.11-7.78.73-.46.8-.85.61-1.62-.79-3.19,2.13-6.14,5.35-5.4.81.19,1.23.1,1.71-.67,1.83-2.89,5.85-2.85,7.67.04.4.63.71.87,1.51.66,3.3-.86,6.28,2.08,5.47,5.43-.2.83-.03,1.15.68,1.57,2.9,1.72,2.9,5.81,0,7.66-.66.42-.89.72-.67,1.56.74,2.93-1.42,5.56-4.69,5.55ZM27.37,35.56c.01,1.86,1.41,3.28,3.22,3.28,1.77,0,3.3-1.5,3.32-3.24.02-1.82-1.48-3.29-3.34-3.28-1.88,0-3.21,1.36-3.19,3.25ZM33.29,26.76c0-1.91-1.26-3.11-2.95-2.99-1.53.11-2.67,1.61-2.39,3.2.16.91.36,1.82.63,2.7.55,1.8,2.05.24,3,.78.47.27.85-.17,1.02-.67.34-1.05.62-2.12.69-3.02ZM33.29,44.29c-.05-.97-.24-2.17-.82-3.17-.72-1.25-2.09,0-3.09-.53-.39-.21-.58.27-.71.61-.35.94-.56,1.91-.72,2.89-.26,1.68.88,3.17,2.54,3.29,1.52.11,2.79-1.19,2.79-3.08ZM39.25,38.21c2.01.05,3.15-1.06,3.09-2.8-.05-1.64-1.29-2.66-3.05-2.51-1.04.09-2.07.27-3,.71-1.46.69-.05,2.08-.63,3.03-.22.36.11.66.48.81.03.01.06.03.1.04,1.05.36,2.11.64,3.02.72ZM22,38.22c.71-.01,1.73-.33,2.74-.65.36-.11.93-.22.8-.69-.3-1.04.3-2.09-.16-3.09-.04-.09-.25-.12-.38-.17-1.04-.38-2.1-.66-3.21-.74-1.64-.11-2.9.96-2.94,2.52-.05,1.65,1.09,2.8,3.16,2.81ZM24.14,44.64c1.29,0,1.81-.46,2.11-1.74.21-.9.51-1.77.76-2.66.09-.33.35-.65.02-.99-.32-.34-.68-.27-1.08-.15-1.02.31-2.03.62-3.07.85-.68.15-1.04.53-1.26,1.15-.63,1.74.63,3.53,2.51,3.54ZM39.72,29.01c0-.06,0-.2-.02-.34-.16-1.2-1.36-2.25-2.6-2.28-1.23-.03-1.87.58-2.19,1.98-.18.79-.44,1.57-.67,2.35-.11.39-.43.76-.02,1.18.4.41.78.16,1.18.04.85-.25,1.69-.53,2.56-.74,1.29-.3,1.76-.83,1.76-2.19ZM21.45,29.08c0,1.03.55,1.89,1.37,2.03,1.1.18,2.15.49,3.19.88.31.12.59.21.89-.06.33-.3.29-.62.16-.97-.38-1.04-.71-2.09-.88-3.19-.09-.54-.43-.88-.91-1.11-1.7-.82-3.81.51-3.82,2.42ZM39.71,41.95c-.02-1.19-.46-1.73-1.61-2.03-.96-.25-1.92-.53-2.88-.81-.32-.1-.62-.17-.9.08-.31.28-.3.62-.16.98.42,1.03.69,2.1.89,3.18.12.66.56.97,1.11,1.17,1.73.61,3.57-.73,3.54-2.57Z"/>
  <path class="cls-1" d="M30.62,56.06c-10.45.09-19.18-7.59-20.49-17.94-1.44-11.44,6.7-21.74,18.21-23.07,4.84-.56,9.27.57,13.38,3.1.3.19.59.4.87.63.41.33.55.75.24,1.22-.31.47-.76.5-1.22.28-.29-.14-.55-.33-.82-.5-3.07-2.03-6.48-3.04-10.11-3.02-7.77.04-14.28,4.45-17.27,11.28-4.82,11.01,1.8,23.59,13.58,25.95,10.5,2.1,20.67-5.14,22.18-15.81.59-4.16-.12-8.09-2.17-11.77-.21-.37-.43-.75-.57-1.15-.15-.41-.03-.78.35-1.02.38-.24.79-.2,1.07.13.3.34.56.74.78,1.14,7.05,12.99-.88,28.59-15.55,30.55-.81.11-1.64.01-2.46.01Z"/>
  <path class="cls-1" d="M52.08,17.53c-.95-.55-1.52.2-2.16.85-1.94,1.95-3.88,3.89-5.83,5.83-.2.2-.4.41-.62.59-.43.37-.91.47-1.34.05-.43-.43-.34-.93.04-1.34.73-.78,1.5-1.53,2.26-2.29,1.56-1.57,3.12-3.14,4.7-4.69.4-.39.57-.76.41-1.32-.29-1.02.06-1.91.77-2.64,1.19-1.23,2.39-2.45,3.64-3.63,1.23-1.17,2.87-1.14,4.04,0,1.13,1.1,1.25,2.71.13,3.95-1.21,1.35-2.54,2.6-3.85,3.87-.56.54-1.28.76-2.19.77ZM52.43,15.62c.16-.07.43-.11.6-.26,1.24-1.21,2.48-2.43,3.69-3.68.41-.42.36-.92-.05-1.33-.41-.41-.94-.45-1.35-.06-1.26,1.2-2.48,2.44-3.69,3.68-.3.3-.31.72-.13,1.1.16.35.47.52.94.56Z"/>
</svg>