<?xml version="1.0" encoding="UTF-8"?>
<svg id="Capa_1" xmlns="http://www.w3.org/2000/svg" viewBox="0 0 65 65">
  <defs>
    <style>
      .cls-1 {
        fill: #837fcb;
      }
    </style>
  </defs>
  <path class="cls-1" d="M22.44,9.24c-3.48,0-6.96,0-10.44,0-.64,0-.77.54-1.07.92-.84,1.06-1.91,1.62-3.27,1.33-1.33-.28-2.26-1.1-2.55-2.45-.29-1.32.08-2.47,1.17-3.34,1.49-1.19,3.7-.83,4.74.86.4.64.82.85,1.54.84,5.17-.02,10.34-.02,15.51,0,.76,0,1.19-.12,1.2-1.03,0-.81.56-1.3,1.4-1.32,1.21-.03,2.42-.03,3.64,0,.95.02,1.44.58,1.46,1.5.01.66.31.85.92.85,5.35-.01,10.7-.02,16.04,0,.66,0,.92-.34,1.22-.82.86-1.36,2.33-1.88,3.8-1.4,1.45.46,2.31,1.78,2.2,3.4-.09,1.44-1.17,2.67-2.68,2.92-1.41.24-2.51-.35-3.3-1.5-.29-.43-.55-.78-1.15-.78-3.42.02-6.84.01-10.42.01,9.6,4.92,15.16,12.42,15.16,23.26,0,10.82-5.5,18.32-15.21,23.29.94,0,1.68-.01,2.42,0,.65.01,1.28.14,1.27.96-.01.85-.68.87-1.31.87-2.64,0-5.28.02-7.91,0-.68,0-1.05.13-1.07.93-.03.99-.66,1.44-1.63,1.44-1.07,0-2.14,0-3.21,0-1.03,0-1.64-.47-1.67-1.52-.02-.67-.32-.84-.93-.84-5.35.01-10.7.02-16.04,0-.66,0-.92.35-1.22.82-.86,1.36-2.33,1.87-3.81,1.4-1.45-.47-2.3-1.78-2.2-3.4.09-1.44,1.18-2.67,2.69-2.92,1.41-.24,2.5.35,3.3,1.51.27.39.47.77,1.05.77,3.45-.01,6.9,0,10.41-.17-.43-.2-.86-.4-1.29-.61-9.29-4.71-14.76-14.56-13.75-24.94.49-5.1,2.43-9.64,5.68-13.61.25-.3.52-.59.8-.86.38-.36.84-.44,1.25-.08.42.36.38.83.09,1.25-.22.32-.5.61-.74.92-5.47,6.98-6.89,14.73-3.79,23.03,3.01,8.05,9,12.88,17.42,14.69.71.15,1.03.08,1.12-.74.08-.76.68-1.17,1.43-1.2,1.17-.04,2.35-.04,3.53,0,.8.03,1.4.46,1.48,1.28.08.8.45.79,1.07.66,8.39-1.77,14.32-6.59,17.42-14.56,5.13-13.22-2.63-27.73-16.41-31.01-.35-.08-.71-.1-1.05-.21-.68-.22-.95-.03-1.04.71-.1.81-.71,1.22-1.51,1.24-1.14.03-2.28.04-3.42,0-.85-.03-1.44-.48-1.53-1.35-.07-.74-.43-.74-1.02-.62-3.45.67-6.6,2.01-9.44,4.08-.26.19-.51.38-.78.57-.5.35-.99.44-1.4-.1-.38-.51-.17-.96.25-1.31.55-.45,1.13-.87,1.72-1.27,1.22-.84,2.54-1.52,3.84-2.31ZM33.94,8.36q0-1.47-1.34-1.48-1.52,0-1.52,1.4t1.34,1.47q1.52,0,1.52-1.39ZM33.94,56.61q0-1.35-1.46-1.35-1.41,0-1.4,1.51,0,1.36,1.46,1.36,1.41,0,1.4-1.52ZM6.91,8.12c0,.91.67,1.63,1.41,1.56.8-.08,1.3-.57,1.37-1.38.06-.74-.66-1.42-1.44-1.39-.85.03-1.27.52-1.34,1.21ZM56.87,6.9c-.89.02-1.51.61-1.52,1.33-.01.74.69,1.47,1.4,1.46.75-.01,1.4-.71,1.36-1.48-.05-.85-.55-1.26-1.24-1.31ZM8.15,58.11c.91-.02,1.61-.7,1.53-1.43-.09-.81-.59-1.28-1.41-1.32-.77-.04-1.41.65-1.36,1.44.05.85.55,1.26,1.24,1.31Z"/>
  <path class="cls-1" d="M32.56,12.78c10.76.02,19.68,8.98,19.67,19.75,0,10.81-9,19.75-19.83,19.7-10.76-.04-19.65-9.02-19.62-19.8.03-10.76,9-19.67,19.77-19.65ZM32.51,50.27c9.94,0,17.78-7.85,17.77-17.79-.01-9.9-7.82-17.71-17.71-17.74-9.95-.03-17.81,7.8-17.82,17.74-.01,9.94,7.83,17.8,17.77,17.8Z"/>
  <path class="cls-1" d="M59.97,56.67c.01,1.5-.85,2.73-2.23,3.16-1.44.45-2.94-.02-3.71-1.33-.43-.73-.94-.94-1.72-.9-1.03.05-2.06.01-3.09,0-.59,0-1.1-.17-1.11-.86-.01-.66.47-.94,1.06-.95,1.1-.03,2.2-.05,3.3-.01.71.02,1.16-.18,1.56-.82.83-1.31,2.25-1.79,3.61-1.37,1.43.44,2.32,1.61,2.33,3.08ZM56.92,58.11c.69-.08,1.17-.51,1.19-1.35.02-.8-.64-1.46-1.41-1.39-.82.07-1.29.55-1.34,1.37-.05.76.64,1.39,1.56,1.37Z"/>
  <path class="cls-1" d="M43.44,36.86c-2.41-.02-4.35-1.97-4.34-4.37,0-2.44,1.98-4.35,4.47-4.34,2.46,0,4.43,1.99,4.38,4.42-.05,2.45-2.01,4.31-4.51,4.29ZM43.5,29.99c-1.39.02-2.52,1.15-2.51,2.52.01,1.37,1.15,2.49,2.54,2.5,1.42,0,2.63-1.21,2.58-2.58-.05-1.36-1.23-2.46-2.61-2.44Z"/>
  <path class="cls-1" d="M25.2,36.86c-2.5,0-4.38-1.9-4.37-4.39.02-2.49,1.92-4.34,4.44-4.32,2.42.01,4.31,1.92,4.31,4.34,0,2.47-1.9,4.38-4.38,4.38ZM27.73,32.56c.03-1.39-1.06-2.54-2.45-2.56-1.46-.03-2.53.97-2.57,2.4-.05,1.51.99,2.6,2.47,2.62,1.4.01,2.52-1.07,2.55-2.46Z"/>
  <path class="cls-1" d="M36.53,31.58c1.89,0,2.26.4,1.88,2.08-.58,2.55-2.73,3.8-5.17,3.01-2.4-.77-3.65-3.43-2.72-5.77.93-2.34,3.69-3.46,5.93-2.39.59.28,1.26.62.92,1.43-.34.81-1,.56-1.63.29-1.11-.47-2.23-.25-2.96.52-.69.73-.87,1.96-.41,2.89.45.94,1.39,1.45,2.45,1.37.53-.04.97-.26,1.28-.68.27-.36.69-.85-.25-.9-.63-.04-1.2-.23-1.17-.95.03-.79.68-.9,1.33-.9.18,0,.36,0,.53,0Z"/>
  <path class="cls-1" d="M17.05,32.49c0-1,0-1.99,0-2.99,0-.64.13-1.28.93-1.3.84-.02.91.64.91,1.28,0,1.5.03,2.99,0,4.49-.02.77.21,1.15,1.02,1.08.24-.02.5.02.73.09.45.15.73.47.67.96-.05.44-.36.72-.79.74-.85.03-1.71.06-2.56,0-.71-.05-.89-.62-.9-1.24,0-1.03,0-2.06,0-3.1Z"/>
</svg>