<?xml version="1.0" encoding="UTF-8"?>
<svg id="Capa_1" xmlns="http://www.w3.org/2000/svg" viewBox="0 0 65 65">
  <defs>
    <style>
      .cls-1 {
        fill: #837fcb;
      }
    </style>
  </defs>
  <path class="cls-1" d="M32.53,60c-15.05.23-27.52-12.42-27.55-27.42-.03-15.08,12.49-27.59,27.54-27.58,15.02.01,27.5,12.49,27.5,27.52,0,15.03-12.48,27.68-27.49,27.48ZM58.13,32.52c0-14.23-11.4-25.63-25.63-25.63-14.23,0-25.63,11.4-25.63,25.63,0,14.23,11.4,25.63,25.63,25.63,14.23,0,25.63-11.4,25.63-25.63Z"/>
  <path class="cls-1" d="M9.31,32.4c-.01-12.68,10.39-23.06,23.07-23.08,5.49,0,10.35,1.7,14.64,5.09.22.18.45.36.63.57.32.37.35.78.02,1.16-.33.37-.73.42-1.16.17-.24-.14-.47-.32-.7-.49-9.79-7.68-23.7-5.66-30.86,4.49-5.3,7.51-5.03,18,.65,25.27.22.28.45.56.64.85.29.44.3.89-.12,1.25-.48.41-.94.26-1.32-.16-1.01-1.12-1.86-2.35-2.58-3.67-2.04-3.73-2.92-7.19-2.92-11.46Z"/>
  <path class="cls-1" d="M55.7,32.66c0,12.67-10.42,23.05-23.11,23.06-5.44,0-10.28-1.69-14.55-5.04-.28-.22-.55-.46-.77-.73-.25-.31-.24-.67,0-.99.27-.35.63-.5,1.03-.31.32.15.61.36.89.58,12.83,10.08,31.6,2.91,34.35-13.18,1.05-6.14-.44-11.73-4.23-16.7-.45-.59-1.31-1.26-.4-1.99.92-.73,1.38.25,1.83.83,3.33,4.25,4.98,9.07,4.95,14.47Z"/>
  <path class="cls-1" d="M31.58,24.67c0-1.5,0-3,0-4.49,0-.68.1-1.39.97-1.35.79.03.87.71.87,1.35,0,2.89,0,5.78,0,8.67,0,1.46,1.32,2.75,2.8,2.76,2.28,0,4.56,0,6.85,0,.67,0,1.41.05,1.41.92,0,.87-.73.93-1.4.93-2.35,0-4.71,0-7.06,0-.94,0-2.48,1.29-2.59,2.2-.08.63-.25,1.18-.98,1.15-.66-.03-.82-.55-.88-1.14-.08-.72-1.52-2.13-2.26-2.21-.59-.07-1.09-.26-1.09-.93,0-.66.5-.85,1.09-.93,1.02-.13,2.26-1.61,2.26-2.64,0-1.43,0-2.85,0-4.28Z"/>
  <path class="cls-1" d="M33.44,15.01c-.02.42,0,.89-.09,1.34-.08.47-.41.76-.91.74-.44-.02-.78-.31-.8-.73-.06-.92-.06-1.85-.01-2.77.02-.46.36-.78.86-.79.5,0,.8.31.87.78.07.45.05.92.08,1.42Z"/>
  <path class="cls-1" d="M14.91,33.41c-.43,0-.86.04-1.28-.01-.51-.06-.86-.37-.84-.93.02-.5.36-.8.83-.83.85-.05,1.71-.05,2.56-.01.51.02.89.34.89.88,0,.55-.37.84-.88.89-.42.04-.85,0-1.28,0h0Z"/>
  <path class="cls-1" d="M50.07,33.43c-.39,0-.79.02-1.17,0-.56-.05-.97-.33-.96-.93.01-.54.4-.84.92-.86.82-.03,1.64-.04,2.45,0,.51.02.9.32.9.87,0,.61-.41.88-.97.92-.39.03-.78,0-1.17,0Z"/>
  <path class="cls-1" d="M31.56,50.03c.02-.42,0-.89.09-1.34.08-.47.41-.76.91-.74.44.02.77.31.8.73.06.92.06,1.85.01,2.77-.03.46-.36.78-.86.78-.5,0-.8-.32-.87-.78-.07-.45-.05-.92-.08-1.43Z"/>
  <path class="cls-1" d="M23.98,18.53c-.87,0-2.08-2.03-1.69-2.73.24-.43.63-.54,1.09-.4.5.16,1.51,1.85,1.42,2.37-.09.47-.39.73-.82.76Z"/>
  <path class="cls-1" d="M41.06,18.53c-.56-.06-.99-.41-.83-1.03.19-.75.57-1.47,1.18-1.97.49-.39,1.03-.27,1.32.32.34.68-.85,2.63-1.67,2.68Z"/>
  <path class="cls-1" d="M18.51,24c-.12.61-.5.97-1.12.78-.67-.2-1.31-.56-1.81-1.07-.44-.45-.41-1,.14-1.36.63-.41,1.15.07,1.65.36.51.29,1.11.53,1.14,1.29Z"/>
  <path class="cls-1" d="M47.51,24.84c-.47,0-.77-.16-.93-.52-.17-.36-.12-.72.16-.98.55-.51,1.19-.89,1.91-1.1.33-.1.63.03.85.3.24.31.29.69.06.99-.53.7-1.34.99-2.05,1.31Z"/>
  <path class="cls-1" d="M16.29,42.83c-.45,0-.73-.15-.88-.46-.16-.34-.16-.71.12-.99.53-.53,1.19-.88,1.89-1.14.37-.14.7.04.92.35.23.32.26.71,0,.99-.57.65-1.33,1.02-2.06,1.25Z"/>
  <path class="cls-1" d="M49.68,41.92c.01.35-.12.62-.42.8-.69.4-2.74-.77-2.76-1.58-.01-.39.18-.68.53-.84.69-.32,2.62.87,2.65,1.63Z"/>
  <path class="cls-1" d="M22.94,49.7c-.55-.09-.87-.48-.7-1.1.19-.68.55-1.32,1.06-1.81.51-.47,1.06-.38,1.41.24.39.71-.88,2.71-1.77,2.67Z"/>
  <path class="cls-1" d="M41.05,46.51c.81.03,2.02,1.99,1.68,2.67-.33.64-.89.73-1.4.27-.55-.5-.93-1.18-1.11-1.9-.15-.63.27-.97.83-1.04Z"/>
</svg>