<?xml version="1.0" encoding="UTF-8"?>
<svg id="Capa_1" xmlns="http://www.w3.org/2000/svg" viewBox="0 0 65 65">
  <defs>
    <style>
      .cls-1 {
        fill: #837fcb;
      }
    </style>
  </defs>
  <path class="cls-1" d="M32.51,60c-7.03,0-14.06,0-21.1,0-1.65,0-1.85-.2-1.85-1.85,0-13.28,0-26.56,0-39.84q0-1.58-1.58-1.58c-.39,0-.79.02-1.18-.02-1.03-.09-1.75-.76-1.77-1.8-.04-2.68-.04-5.35,0-8.03.02-1.14.76-1.85,1.92-1.87,2.71-.03,5.43-.01,8.14-.01.62,0,1.2.12,1.18.9-.02.74-.59.92-1.2.93-2.25.01-4.5,0-6.75.01q-1.46,0-1.46,1.49c0,1.86.04,3.71-.01,5.57-.03.97.54,1.02,1.24.98.67-.04,1.54.25,1.49-.94-.02-.43-.02-.86.01-1.28.11-1.7,1.14-2.71,2.83-2.71,13.39,0,26.77,0,40.16,0,1.68,0,2.65.9,2.85,2.57.03.25.03.5.03.75.03,1.56.68,2.02,2.2,1.6.4-.11.5-.36.5-.71,0-2.18,0-4.35,0-6.53,0-.54-.25-.79-.78-.78-.32,0-.64,0-.96,0-11.99,0-23.99,0-35.98,0-.46,0-.93.01-1.39-.07-.51-.09-.84-.41-.78-.98.05-.5.38-.75.87-.78.28-.02.57-.02.86-.02,12.46,0,24.92,0,37.38,0,2.09,0,2.64.56,2.64,2.68,0,2.21,0,4.43,0,6.64,0,1.76-.64,2.38-2.38,2.41-2.36.03-2.17-.37-2.17,2.17,0,8.71,0,17.42-.01,26.13,0,.78.23,1.91-.94,1.94-1.27.02-.99-1.16-1.01-1.97-.04-1.39-.03-2.78,0-4.18.01-.72-.26-1.04-1.01-1.03-1.96.02-3.93.02-5.89,0-.68,0-.96.25-.95.95.02,3.21.02,6.43,0,9.64,0,.71.29.94.96.93,1.96-.02,3.93-.02,5.89,0,.65,0,.99-.2,1.02-.91.02-.63.2-1.28,1.02-1.23.81.05.9.73.91,1.35.02,2.68.03,5.35,0,8.03-.01,1.17-.34,1.44-1.61,1.44-7.1,0-14.21,0-21.31,0ZM32.5,53.44c3.32,0,6.64-.04,9.95.02,1.11.02,1.38-.35,1.37-1.41-.05-5.49-.02-10.99-.02-16.48,0-.36-.02-.72.03-1.07.14-1.04.92-1.47,1.86-.98.66.34,1.3.75,1.92,1.17.51.35.82.23,1.12-.27.57-.95,1.13-1.9,1.76-2.81.44-.63.35-1.06-.21-1.55-1.83-1.6-3.77-3.05-5.72-4.5-2.46-1.83-5.05-2.5-8.02-1.41-2.67.97-5.38.92-8.08.02-.47-.16-.98-.22-1.45-.37-1.69-.54-3.3-.17-4.74.65-2.8,1.59-5.29,3.62-7.69,5.77-.41.37-.49.73-.17,1.21.64.98,1.27,1.99,1.87,3,.3.5.61.62,1.12.27.62-.42,1.25-.83,1.92-1.17.94-.49,1.72-.06,1.86.98.05.35.03.71.03,1.07,0,5.49.03,10.99-.02,16.48,0,1.06.26,1.44,1.37,1.41,3.32-.07,6.64-.02,9.95-.02ZM32.51,16.73c-6.6,0-13.21.01-19.81-.02-.87,0-1.21.26-1.19,1.16.05,1.85.04,3.71,0,5.57-.01.77.25,1.1,1.05,1.07,1.35-.05,2.72-.08,4.07,0,1.42.09,2.59-.29,3.78-1.1,2.26-1.55,4.74-2.3,7.48-1.31,3.07,1.11,6.14,1.12,9.21,0,.07-.02.14-.03.21-.06,2.26-.84,4.52-.47,6.33.83,2.12,1.53,4.34,1.75,6.75,1.62.68-.04,1.36-.04,2.03,0,.8.05,1.08-.28,1.06-1.06-.03-1.78-.07-3.57.01-5.35.05-1.09-.32-1.4-1.4-1.39-6.53.05-13.06.02-19.59.02ZM32.4,58.16c3.93,0,7.85,0,11.78,0,2.71,0,5.43-.03,8.14.01.89.01,1.22-.3,1.17-1.18-.05-1-.02-2-.01-3,0-.58-.24-.84-.84-.84-2.07.01-4.14,0-6.21,0-.44,0-.75.11-.79.64-.09,1.05-.76,1.48-1.74,1.48-7.6,0-15.2,0-22.81,0-.93,0-1.62-.4-1.71-1.4-.06-.65-.42-.73-.94-.73-2,0-4,.02-6,0-.71,0-.95.31-.93.97.02.89.07,1.79-.01,2.68-.1,1.1.35,1.39,1.41,1.39,6.5-.04,12.99-.02,19.49-.02ZM32.45,14.89c1.25,0,2.5,0,3.75,0,5.32,0,10.64,0,15.95,0,.41,0,.98.18,1.17-.28.31-.73.26-1.56.04-2.31-.2-.67-.87-.5-1.38-.5-12.99,0-25.98,0-38.97,0-1.4,0-1.49.12-1.49,1.67,0,1.41,0,1.42,1.44,1.42,6.5,0,12.99,0,19.49,0ZM19.36,45.68c0-1.64-.02-3.28,0-4.92.01-.68-.24-.97-.93-.96-1.96.02-3.92.02-5.88,0-.71,0-1.04.25-1.03,1,.02,3.17.02,6.34,0,9.51,0,.73.28,1.02,1.02,1.01,1.92-.03,3.85-.03,5.77,0,.77.01,1.09-.24,1.07-1.05-.05-1.53-.01-3.06-.01-4.6ZM48.86,26.34c1.34,1.2,2.46,2.19,3.57,3.18.65.58.78,1.24.3,2-1.03,1.63-2.04,3.27-3.08,4.89-.51.79-1.19.97-2.01.47-.46-.28-.9-.58-1.36-.85-.17-.1-.48-.26-.54.02-.09.44-.09.92-.03,1.37.06.4.45.4.78.4,2.03,0,4.07,0,6.1,0,.63,0,.9-.28.9-.91,0-3.25,0-6.49,0-9.74,0-.57-.23-.86-.83-.85-1.17.01-2.34,0-3.8,0ZM16.16,26.34c-1.43,0-2.57.02-3.7,0-.7-.02-.94.3-.94.97.01,3.18.02,6.35,0,9.53,0,.73.28,1.03,1.02,1.02,1.96-.02,3.92,0,5.89-.01.39,0,.85.03.9-.51.04-.45.24-1.02-.13-1.32-.34-.28-.67.23-1.01.39-.16.07-.3.19-.45.28-1.28.78-1.76.7-2.55-.54-.94-1.47-1.84-2.97-2.8-4.43-.6-.91-.48-1.64.35-2.33,1.09-.92,2.13-1.88,3.44-3.03Z"/>
  <path class="cls-1" d="M40.3,37.68c.02,2.52-1.29,4.38-3.04,6-.81.75-1.77,1.32-2.68,1.94-1.37.93-2.66.95-4.07.07-1.93-1.2-3.71-2.53-4.86-4.55-1.48-2.62-1.24-5.69.61-7.54,1.57-1.56,3.42-1.78,5.43-1.08.48.17.9.27,1.42.07,3.78-1.44,7.19.99,7.19,5.09ZM38.45,37.14c.02-2.41-2.4-3.96-5.02-2.62-.74.38-1.3.26-1.99-.08-2.42-1.19-4.79.28-4.88,2.97-.05,1.44.42,2.73,1.37,3.72,4.1,4.28,5.04,4.28,9.13.04.9-.93,1.4-2.14,1.4-4.04Z"/>
</svg>